REM DIRINDEX 1\2,1\3\5,1\3\6,1\4\7,1\4\8
REM DIRNAME folder01,folder02,folder03,folder04,folder05,folder06,folder07,folder08
TITLE ""
FILE "JE_08.mp3" MP3
  TRACK 01 AUDIO
    TITLE "0:"
    INDEX 01 00:00:00
  TRACK 02 AUDIO
    TITLE "7:cjc139_3076"
    INDEX 01 00:00:17
  TRACK 03 AUDIO
    TITLE "0:"
    INDEX 01 00:02:36
  TRACK 04 AUDIO
    TITLE "8:cjc139_3077"
    INDEX 01 00:05:20
  TRACK 05 AUDIO
    TITLE "0:"
    INDEX 01 00:07:35
  TRACK 06 AUDIO
    TITLE "7:cjc139_3078"
    INDEX 01 00:10:19
  TRACK 07 AUDIO
    TITLE "0:"
    INDEX 01 00:12:42
  TRACK 08 AUDIO
    TITLE "8:cjc139_3079"
    INDEX 01 00:15:28
  TRACK 09 AUDIO
    TITLE "0:"
    INDEX 01 00:17:70
  TRACK 10 AUDIO
    TITLE "7:cjc139_3080"
    INDEX 01 00:20:55
  TRACK 11 AUDIO
    TITLE "0:"
    INDEX 01 00:23:08
  TRACK 12 AUDIO
    TITLE "8:cjc139_3081"
    INDEX 01 00:25:68
  TRACK 13 AUDIO
    TITLE "0:"
    INDEX 01 00:28:35
  TRACK 14 AUDIO
    TITLE "7:cjc139_3082"
    INDEX 01 00:31:18
  TRACK 15 AUDIO
    TITLE "0:"
    INDEX 01 00:33:42
  TRACK 16 AUDIO
    TITLE "8:cjc139_3083"
    INDEX 01 00:36:29
  TRACK 17 AUDIO
    TITLE "0:"
    INDEX 01 00:38:41
  TRACK 18 AUDIO
    TITLE "7:cjc139_3084"
    INDEX 01 00:41:26
  TRACK 19 AUDIO
    TITLE "0:"
    INDEX 01 00:44:28
  TRACK 20 AUDIO
    TITLE "8:cjc139_3085"
    INDEX 01 00:47:15
  TRACK 21 AUDIO
    TITLE "0:"
    INDEX 01 00:50:15
  TRACK 22 AUDIO
    TITLE "7:cjc139_3086"
    INDEX 01 00:53:02
  TRACK 23 AUDIO
    TITLE "0:"
    INDEX 01 00:56:37
  TRACK 24 AUDIO
    TITLE "8:cjc139_3087"
    INDEX 01 00:59:22
  TRACK 25 AUDIO
    TITLE "0:"
    INDEX 01 01:00:74
  TRACK 26 AUDIO
    TITLE "7:cjc139_3088"
    INDEX 01 01:03:57
  TRACK 27 AUDIO
    TITLE "0:"
    INDEX 01 01:06:02
  TRACK 28 AUDIO
    TITLE "8:cjc139_3089"
    INDEX 01 01:08:60
  TRACK 29 AUDIO
    TITLE "0:"
    INDEX 01 01:11:03
  TRACK 30 AUDIO
    TITLE "7:cjc139_3090"
    INDEX 01 01:13:63
  TRACK 31 AUDIO
    TITLE "0:"
    INDEX 01 01:17:02
  TRACK 32 AUDIO
    TITLE "8:cjc139_3091"
    INDEX 01 01:19:60
  TRACK 33 AUDIO
    TITLE "0:"
    INDEX 01 01:23:07
  TRACK 34 AUDIO
    TITLE "7:cjc139_3092"
    INDEX 01 01:25:68
  TRACK 35 AUDIO
    TITLE "0:"
    INDEX 01 01:29:56
  TRACK 36 AUDIO
    TITLE "8:cjc139_3093"
    INDEX 01 01:32:43
  TRACK 37 AUDIO
    TITLE "0:"
    INDEX 01 01:35:00
  TRACK 38 AUDIO
    TITLE "7:cjc139_3094"
    INDEX 01 01:37:64
  TRACK 39 AUDIO
    TITLE "0:"
    INDEX 01 01:39:70
  TRACK 40 AUDIO
    TITLE "8:cjc139_3095"
    INDEX 01 01:42:55
  TRACK 41 AUDIO
    TITLE "0:"
    INDEX 01 01:45:08
  TRACK 42 AUDIO
    TITLE "7:cjc139_3096"
    INDEX 01 01:47:68
  TRACK 43 AUDIO
    TITLE "0:"
    INDEX 01 01:50:37
  TRACK 44 AUDIO
    TITLE "8:cjc139_3097"
    INDEX 01 01:53:25
  TRACK 45 AUDIO
    TITLE "0:"
    INDEX 01 01:56:02
  TRACK 46 AUDIO
    TITLE "7:cjc139_3098"
    INDEX 01 01:58:60
  TRACK 47 AUDIO
    TITLE "0:"
    INDEX 01 02:02:46
  TRACK 48 AUDIO
    TITLE "8:cjc139_3099"
    INDEX 01 02:05:34
  TRACK 49 AUDIO
    TITLE "0:"
    INDEX 01 02:08:62
  TRACK 50 AUDIO
    TITLE "7:cjc139_3100"
    INDEX 01 02:11:47
  TRACK 51 AUDIO
    TITLE "0:"
    INDEX 01 02:15:07
  TRACK 52 AUDIO
    TITLE "8:cjc139_3101"
    INDEX 01 02:17:65
  TRACK 53 AUDIO
    TITLE "0:"
    INDEX 01 02:20:65
  TRACK 54 AUDIO
    TITLE "7:cjc139_3102"
    INDEX 01 02:23:50
  TRACK 55 AUDIO
    TITLE "0:"
    INDEX 01 02:25:74
  TRACK 56 AUDIO
    TITLE "8:cjc139_3103"
    INDEX 01 02:28:57
  TRACK 57 AUDIO
    TITLE "0:"
    INDEX 01 02:31:14
  TRACK 58 AUDIO
    TITLE "7:cjc139_3104"
    INDEX 01 02:34:01
  TRACK 59 AUDIO
    TITLE "0:"
    INDEX 01 02:36:04
  TRACK 60 AUDIO
    TITLE "8:cjc139_3105"
    INDEX 01 02:38:65
  TRACK 61 AUDIO
    TITLE "0:"
    INDEX 01 02:41:60
  TRACK 62 AUDIO
    TITLE "7:cjc139_3106"
    INDEX 01 02:44:46
  TRACK 63 AUDIO
    TITLE "0:"
    INDEX 01 02:46:55
  TRACK 64 AUDIO
    TITLE "8:cjc139_3107"
    INDEX 01 02:49:40
  TRACK 65 AUDIO
    TITLE "0:"
    INDEX 01 02:52:26
  TRACK 66 AUDIO
    TITLE "7:cjc139_3108"
    INDEX 01 02:55:11
  TRACK 67 AUDIO
    TITLE "0:"
    INDEX 01 02:56:67
  TRACK 68 AUDIO
    TITLE "8:cjc139_3109"
    INDEX 01 02:59:52
  TRACK 69 AUDIO
    TITLE "0:"
    INDEX 01 03:01:33
  TRACK 70 AUDIO
    TITLE "7:cjc139_3110"
    INDEX 01 03:04:16
  TRACK 71 AUDIO
    TITLE "0:"
    INDEX 01 03:06:42
  TRACK 72 AUDIO
    TITLE "8:cjc139_3111"
    INDEX 01 03:09:25
  TRACK 73 AUDIO
    TITLE "0:"
    INDEX 01 03:12:39
  TRACK 74 AUDIO
    TITLE "7:cjc139_3112"
    INDEX 01 03:15:23
  TRACK 75 AUDIO
    TITLE "0:"
    INDEX 01 03:17:54
  TRACK 76 AUDIO
    TITLE "8:cjc139_3113"
    INDEX 01 03:20:40
  TRACK 77 AUDIO
    TITLE "0:"
    INDEX 01 03:22:49
  TRACK 78 AUDIO
    TITLE "7:cjc139_3114"
    INDEX 01 03:25:33
  TRACK 79 AUDIO
    TITLE "0:"
    INDEX 01 03:27:44
  TRACK 80 AUDIO
    TITLE "8:cjc139_3115"
    INDEX 01 03:30:27
  TRACK 81 AUDIO
    TITLE "0:"
    INDEX 01 03:33:08
  TRACK 82 AUDIO
    TITLE "7:cjc139_3116"
    INDEX 01 03:35:67
  TRACK 83 AUDIO
    TITLE "0:"
    INDEX 01 03:38:26
  TRACK 84 AUDIO
    TITLE "8:cjc139_3117"
    INDEX 01 03:41:09
  TRACK 85 AUDIO
    TITLE "0:"
    INDEX 01 03:43:35
  TRACK 86 AUDIO
    TITLE "7:cjc139_3118"
    INDEX 01 03:46:22
  TRACK 87 AUDIO
    TITLE "0:"
    INDEX 01 03:48:50
  TRACK 88 AUDIO
    TITLE "8:cjc139_3119"
    INDEX 01 03:51:35
  TRACK 89 AUDIO
    TITLE "0:"
    INDEX 01 03:53:42
  TRACK 90 AUDIO
    TITLE "7:cjc139_3120"
    INDEX 01 03:56:28
  TRACK 91 AUDIO
    TITLE "0:"
    INDEX 01 03:58:21
  TRACK 92 AUDIO
    TITLE "8:cjc139_3121"
    INDEX 01 04:01:06
  TRACK 93 AUDIO
    TITLE "0:"
    INDEX 01 04:02:58
  TRACK 94 AUDIO
    TITLE "7:cjc139_3122"
    INDEX 01 04:05:45
  TRACK 95 AUDIO
    TITLE "0:"
    INDEX 01 04:08:02
  TRACK 96 AUDIO
    TITLE "8:cjc139_3123"
    INDEX 01 04:10:64
  TRACK 97 AUDIO
    TITLE "0:"
    INDEX 01 04:12:64
  TRACK 98 AUDIO
    TITLE "7:cjc139_3124"
    INDEX 01 04:15:51
  TRACK 99 AUDIO
    TITLE "0:"
    INDEX 01 04:17:69
  TRACK 100 AUDIO
    TITLE "8:cjc139_3125"
    INDEX 01 04:20:56
  TRACK 101 AUDIO
    TITLE "0:"
    INDEX 01 04:22:71
  TRACK 102 AUDIO
    TITLE "7:cjc139_3126"
    INDEX 01 04:25:59
  TRACK 103 AUDIO
    TITLE "0:"
    INDEX 01 04:29:10
  TRACK 104 AUDIO
    TITLE "8:cjc139_3127"
    INDEX 01 04:31:70
  TRACK 105 AUDIO
    TITLE "0:"
    INDEX 01 04:34:11
  TRACK 106 AUDIO
    TITLE "7:cjc139_3128"
    INDEX 01 04:36:73
  TRACK 107 AUDIO
    TITLE "0:"
    INDEX 01 04:40:45
  TRACK 108 AUDIO
    TITLE "8:cjc139_3129"
    INDEX 01 04:43:34
  TRACK 109 AUDIO
    TITLE "0:"
    INDEX 01 04:46:34
  TRACK 110 AUDIO
    TITLE "7:cjc139_3130"
    INDEX 01 04:49:19
  TRACK 111 AUDIO
    TITLE "0:"
    INDEX 01 04:53:05
  TRACK 112 AUDIO
    TITLE "8:cjc139_3131"
    INDEX 01 04:55:68
  TRACK 113 AUDIO
    TITLE "0:"
    INDEX 01 04:59:25
  TRACK 114 AUDIO
    TITLE "7:cjc139_3132"
    INDEX 01 05:02:11
  TRACK 115 AUDIO
    TITLE "0:"
    INDEX 01 05:05:35
  TRACK 116 AUDIO
    TITLE "8:cjc139_3133"
    INDEX 01 05:08:18
  TRACK 117 AUDIO
    TITLE "0:"
    INDEX 01 05:10:62
  TRACK 118 AUDIO
    TITLE "7:cjc139_3134"
    INDEX 01 05:13:46
  TRACK 119 AUDIO
    TITLE "0:"
    INDEX 01 05:16:17
  TRACK 120 AUDIO
    TITLE "8:cjc139_3135"
    INDEX 01 05:19:02
  TRACK 121 AUDIO
    TITLE "0:"
    INDEX 01 05:21:73
  TRACK 122 AUDIO
    TITLE "8:cjc139_3136"
    INDEX 01 05:23:21
  TRACK 123 AUDIO
    TITLE "0:"
    INDEX 01 05:26:28
  TRACK 124 AUDIO
    TITLE "7:cjc139_3137"
    INDEX 01 05:29:14
  TRACK 125 AUDIO
    TITLE "0:"
    INDEX 01 05:32:32
  TRACK 126 AUDIO
    TITLE "8:cjc139_3138"
    INDEX 01 05:35:15
  TRACK 127 AUDIO
    TITLE "0:"
    INDEX 01 05:38:11
  TRACK 128 AUDIO
    TITLE "8:cjc139_3139"
    INDEX 01 05:39:32
  TRACK 129 AUDIO
    TITLE "0:"
    INDEX 01 05:42:21
  TRACK 130 AUDIO
    TITLE "7:cjc139_3140"
    INDEX 01 05:45:07
  TRACK 131 AUDIO
    TITLE "0:"
    INDEX 01 05:46:73
  TRACK 132 AUDIO
    TITLE "8:cjc139_3141"
    INDEX 01 05:49:58
  TRACK 133 AUDIO
    TITLE "0:"
    INDEX 01 05:51:57
  TRACK 134 AUDIO
    TITLE "7:cjc139_3142"
    INDEX 01 05:54:43
  TRACK 135 AUDIO
    TITLE "0:"
    INDEX 01 05:56:66
  TRACK 136 AUDIO
    TITLE "8:cjc139_3143"
    INDEX 01 05:59:52
  TRACK 137 AUDIO
    TITLE "0:"
    INDEX 01 06:01:55
  TRACK 138 AUDIO
    TITLE "7:cjc139_3144"
    INDEX 01 06:04:40
  TRACK 139 AUDIO
    TITLE "0:"
    INDEX 01 06:07:58
  TRACK 140 AUDIO
    TITLE "8:cjc139_3145"
    INDEX 01 06:10:44
  TRACK 141 AUDIO
    TITLE "0:"
    INDEX 01 06:13:06
  TRACK 142 AUDIO
    TITLE "7:cjc139_3146"
    INDEX 01 06:15:65
  TRACK 143 AUDIO
    TITLE "0:"
    INDEX 01 06:18:11
  TRACK 144 AUDIO
    TITLE "8:cjc139_3147"
    INDEX 01 06:20:70
  TRACK 145 AUDIO
    TITLE "0:"
    INDEX 01 06:23:35
